PathFileType	4	(X/Y/Z)	C:/Users/beibeiliu/ov580/test_trc/User3\sequence.39_training_dense_right.trc
DataRate	CameraRate	NumFrames	NumMarkers	Units	OrigDataRate	OrigDataStartFrame	OrigNumFrames
120	120	22	19	mm	120	62	92
Frame#	Time	ThumbCMC			ThumbMCP			ThumbIP			ThumbTip			IndexMCP			IndexPIP			IndexTip			MiddleMCP			MiddlePIP			MiddleTip			RingMCP			RingPIP			RingTip			PinkyMCP			PinkyPIP			PinkyTip			BackHand1			BackHand2			BackHand3	
		X0	Y0	Z0	X1	Y1	Z1	X2	Y2	Z2	X3	Y3	Z3	X4	Y4	Z4	X5	Y5	Z5	X6	Y6	Z6	X7	Y7	Z7	X8	Y8	Z8	X9	Y9	Z9	X10	Y10	Z10	X11	Y11	Z11	X12	Y12	Z12	X13	Y13	Z13	X14	Y14	Z14	X15	Y15	Z15	X16	Y16	Z16	X17	Y17	Z17	X18	Y18	Z18	
61	0.508333	170.429	3.19027	-21.0268	166.247	18.75	-48.7745	159.384	24.2918	-78.6923	148.13	27.1751	-96.5004	144.489	-30.25	-79.4149	131.326	-20.5529	-106.496	126.979	-8.57833	-126.657	121.224	-14.8738	-73.5383	126.8	19.7153	-74.9848	140.23	11.2569	-38.8968	110.689	-5.78421	-62.8873	113.535	22.0875	-55.3063	128.114	11.8005	-25.0902	98.1101	-1.73486	-50.1867	105.343	20.744	-40.1673	121.595	5.67783	-13.8537	119.894	-37.1698	-17.1613	128.57	-30.6807	14.4886	159.443	-32.6496	-11.7071	
62	0.516667	178.742	-11.9925	-14.1244	171.413	-4.77472	-45.3499	168.524	-6.02538	-77.9632	164.484	-4.21583	-97.1661	160.111	-58.8549	-67.5983	152.986	-57.1416	-94.3046	148.558	-49.3675	-122.499	137.284	-44.2631	-73.8279	138.831	-12.7803	-77.2985	146.627	-12.146	-36.4807	121.375	-37.578	-58.6706	126.461	-5.14205	-57.4665	138.713	-10.0615	-24.3416	106.201	-33.3089	-48.1846	116.59	-6.3328	-44.9649	130.185	-12.3131	-17.7859	133.62	-56.9556	-6.47091	134.837	-44.8303	24.2993	166.832	-47.2666	-1.79732	
63	0.525	186.263	-16.2264	-11.329	179.332	-15.37	-43.1031	179.05	-18.0887	-72.9905	175.013	-21.1118	-96.6743	183.726	-71.355	-58.9364	183.385	-73.5393	-89.9279	169.765	-70.7854	-113.517	159.844	-64.2339	-63.6351	151.395	-36.3241	-74.3358	155.838	-26.8588	-31.7408	141.188	-60.9945	-52.3183	134.004	-31.3524	-55.2257	145.05	-24.3226	-25.1102	125.522	-60.2169	-43.5107	127.66	-34.1893	-46.848	137.278	-25.8873	-17.6671	155.505	-73.927	-0.547902	152.145	-54.3818	30.0384	185.946	-50.5129	5.62815	
64	0.533333	189.188	-7.50396	-5.15442	187.695	-11.1005	-44.0754	186.156	-13.4703	-70.4918	184.011	-22.9317	-93.7697	213.122	-62.1936	-54.5235	208.832	-67.3913	-87.006	197.743	-69.5435	-109.645	187.687	-63.3493	-61.0472	166.013	-41.8332	-70.3359	169.407	-26.9122	-33.4691	166.222	-67.1725	-50.3682	147.499	-39.1507	-51.655	156.55	-28.5311	-25.1543	152.005	-71.0537	-42.1813	142.427	-44.6142	-44.1852	146.444	-34.4942	-15.9811	179.18	-74.3126	2.57825	170.038	-56.9203	32.1297	199.287	-42.111	11.3316	
65	0.541667	188.674	5.50526	-8.82664	186.247	-0.161609	-42.4807	189.108	-2.22903	-71.4946	188.319	-9.57193	-92.8019	230.096	-38.0135	-54.2948	226.557	-46.8067	-84.2444	221.843	-49.3376	-106.977	204.576	-51.4299	-63.4074	180.374	-34.9872	-71.6667	177.206	-19.5683	-36.0566	189.213	-55.72	-53.4617	165.29	-37.2111	-55.13	168.509	-23.836	-24.2593	176.573	-66.0984	-44.8479	157.194	-45.1921	-42.9455	160.794	-34.9159	-18.4772	201.381	-59.263	4.17199	185.539	-45.0958	30.5052	211.207	-26.3197	10.3531	
66	0.55	182.774	21.0661	-12.1608	181.37	16.8111	-44.8557	187.666	15.2706	-77.1414	189.337	8.17745	-96.4381	237.165	-7.37714	-59.4255	240.117	-8.88244	-84.7537	235.633	-16.0659	-113.832	219.715	-24.1358	-62.7421	188.687	-18.5017	-74.1036	182.11	-9.55104	-34.1777	203.443	-38.0067	-57.9914	173.641	-27.9774	-55.1675	173.391	-15.7708	-26.8792	197.601	-51.2683	-47.9872	174.082	-39.6075	-48.8838	170	-30.5348	-17.4598	219.652	-38.7623	-0.986234	197.968	-31.8054	24.8874	211.104	-0.840955	8.66087	
67	0.558333	171.655	32.9173	-14.791	172.84	29.4912	-48.7348	180.474	27.3708	-78.576	180.67	26.5398	-99.8762	232.879	24.6623	-62.4053	234.969	24.5859	-90.4454	233.429	16.0015	-115.963	218.14	5.45819	-70.3517	189.886	-1.80107	-77.4283	179.859	2.43935	-39.6478	213.806	-15.9983	-58.5019	182.08	-15.9222	-61.9535	176.233	-7.08482	-30.0388	209.473	-32.7861	-52.3379	180.516	-23.6953	-50.701	177.066	-20.6399	-22.5882	223.703	-11.2234	-3.91784	203.589	-16.1243	23.4146	207.77	22.5826	3.3405	
68	0.566667	156.317	35.5939	-17.2141	156.759	34.5745	-49.1164	158.452	39.5418	-82.5905	163.217	37.9188	-103.307	212.527	51.8733	-65.1423	215.65	51.3997	-92.3869	212.355	49.9653	-119.689	208.518	25.7292	-76.2511	182.242	12.3677	-81.1878	173.865	12.2556	-42.2719	209.292	5.55553	-66.1397	179.881	-2.73638	-66.4239	173.978	4.37648	-31.7974	210.509	-8.36664	-59.7503	185.742	-12.5388	-58.4743	180.452	-7.85435	-25.9629	219.308	14.5708	-10.189	205.424	2.36275	14.1929	196.774	34.9073	-0.694923	
69	0.575	146.583	31.9312	-20.1989	141.127	32.3021	-50.632	141.713	38.8785	-84.0657	142.856	37.139	-102.961	184.09	69.2241	-73.3667	184.075	69.4926	-98.1326	182.386	66.9743	-123.157	188.79	42.982	-78.9822	165.906	21.004	-85.1648	166.66	15.185	-45.4417	197.436	22.9161	-70.6225	172.623	4.9182	-71.1444	171.778	5.23734	-35.4371	200.682	9.81233	-66.398	182.662	-8.59635	-62.1468	179.88	-5.75407	-32.3991	211.244	31.1717	-18.3347	196.073	16.3805	11.0884	175.711	43.1549	-2.15297	
70	0.583333	135.677	26.0597	-19.2428	130.226	26.749	-53.4328	123.752	31.7922	-84.2108	126.731	32.0657	-105.915	164.503	68.9868	-78.8378	158.983	70.5479	-102.811	154.637	67.6001	-131.037	174.968	44.4665	-82.8041	153.175	21.0086	-89.2275	156.44	13.7817	-50.1247	182.125	28.942	-74.7521	163.714	4.23811	-74.001	161.029	7.90393	-39.4313	190.616	15.7142	-71.6532	173.773	-4.97501	-61.8747	172.462	-1.19507	-35.7431	199.414	39.3824	-25.6499	192.532	24.3636	2.22689	167.273	47.8878	-6.55054	
71	0.591667	129.637	22.724	-22.0255	118.614	18.7639	-53.0461	119.302	20.0905	-85.1942	116.716	19.0507	-109.693	148.542	63.0002	-82.7398	145.404	58.5667	-110.381	137.644	55.1236	-131.995	158.805	38.7783	-89.5179	144.542	11.9393	-91.4309	147.181	12.8048	-48.4385	172.464	22.7291	-80.2042	161.323	-2.91399	-73.7674	157.658	6.75855	-38.5185	186.33	12.0979	-73.0973	168.026	-6.4562	-66.1678	169.45	-2.38896	-38.0757	192.282	41.2124	-28.4042	186.651	25.4605	2.15005	157.755	43.6734	-10.0004	
72	0.6	124.082	16.6091	-20.845	114.41	9.18535	-56.4257	111.227	5.48551	-85.7935	110.397	0.0128163	-108.495	139.917	49.9019	-87.8657	132.506	41.5972	-117.994	127.021	30.5088	-139.757	151.992	26.1903	-93.353	140.536	-3.53457	-90.4169	140.239	2.71591	-52.5073	165.69	14.2539	-82.9313	150.139	-11.7329	-71.7299	154.684	-0.166362	-40.0431	178.931	5.54638	-75.558	161.221	-13.8015	-61.8851	166.71	-3.88443	-33.4331	184.407	38.8327	-35.8653	184.437	28.8904	-8.03794	149.708	44.9449	-20.47	
73	0.608333	117.22	12.2646	-24.9553	103.757	-4.14134	-52.3037	103.492	-13.4994	-80.636	102.415	-21.2511	-101.877	126.787	34.2187	-94.6733	116.495	21.9925	-118.783	113.365	6.63764	-137.973	141.746	11.8416	-95.089	132.524	-16.7233	-89.7481	133.82	-7.54622	-50.7721	156.767	2.39735	-83.1652	147.609	-25.629	-67.5234	147.325	-7.7181	-38.5112	172.456	-6.65469	-74.968	159.089	-25.7496	-58.0465	160.336	-7.66367	-31.2454	172.537	33.9882	-43.7658	174.611	28.7234	-9.47546	141.019	39.6729	-22.9473	
74	0.616667	109.47	2.79896	-21.5061	101.021	-19.0161	-48.2117	96.3635	-34.3604	-70.5409	97.2098	-47.2491	-91.0869	115.094	13.1665	-95.058	107.062	-5.52564	-117.898	106.813	-26.1993	-130.99	132.442	-7.41291	-92.2447	127.018	-35.7088	-79.2954	128.96	-20.5848	-45.0782	149.959	-12.8312	-80.1231	141.076	-37.217	-57.4246	139.674	-19.1316	-33.9649	164.992	-19.0187	-71.0715	150.927	-35.0388	-49.6848	150.917	-12.4222	-29.8533	165.367	26.3059	-47.8442	165.593	27.6927	-11.589	131.512	34.585	-30.5511	
75	0.625	100.273	-1.69076	-18.719	90.9387	-28.8199	-35.6714	84.947	-49.7191	-55.0126	82.7349	-68.0899	-74.9429	105.946	-7.1916	-92.9983	98.7708	-29.4241	-108.347	93.0505	-53.4861	-116.972	122.997	-20.6951	-85.3161	114.869	-49.6749	-66.953	120.273	-23.9734	-35.233	140.621	-32.1641	-72.5761	131.168	-48.8439	-52.1311	131.052	-24.8054	-26.9458	157.411	-30.8024	-63.4812	145.279	-45.9346	-42.709	144.304	-20.0193	-22.1273	157.371	17.6547	-47.9499	157.713	24.3888	-13.7818	121.853	30.1484	-32.572	
76	0.633333	94.0919	0.486485	-13.981	81.3001	-31.4116	-30.7604	73.4332	-53.8686	-42.9709	65.2567	-73.7325	-53.9507	101.518	-17.1028	-85.5132	85.9889	-41.6491	-97.0704	81.6767	-72.3672	-99.9211	113.222	-35.1993	-77.3171	104.056	-58.0522	-54.0017	108.436	-30.1988	-27.7047	129.3	-39.8276	-63.3619	119.279	-54.7252	-35.4396	121.849	-27.9656	-18.44	144.646	-42.5197	-53.599	131.654	-52.1767	-30.9013	132.913	-22.6554	-15.8436	150.403	8.49875	-42.4827	157.099	19.9437	-17.6411	121.581	26.1375	-29.1338	
77	0.641667	91.9615	6.51376	-12.0715	77.5037	-23.675	-18.916	61.1777	-45.9546	-29.8315	49.691	-66.1625	-37.1306	89.8856	-25.1645	-80.9103	76.4002	-48.295	-84.7646	66.9642	-73.5465	-83.6182	104.277	-43.0488	-66.6056	87.7794	-56.1926	-43.073	103.78	-28.8453	-18.5327	118.619	-52.8708	-50.6408	104.464	-54.5755	-26.2346	111.863	-27.1205	-10.3972	135.31	-54.5317	-40.3947	120.67	-52.9241	-15.8782	131.463	-23.6741	-8.74301	149.224	-3.80041	-42.3232	158.085	9.89713	-16.0816	126.54	20.1578	-31.7133	
78	0.65	97.1742	17.3982	-10.2608	73.2813	-7.67794	-13.4895	50.5295	-31.8245	-26.0904	40.2579	-49.561	-31.1843	91.2188	-21.5997	-72.3266	67.5475	-40.2155	-77.8137	52.6404	-62.6402	-73.8587	98.6404	-38.5833	-60.2477	80.3274	-50.0071	-33.5866	98.0401	-21.2741	-13.2515	109.078	-50.3951	-42.0751	96.9334	-48.5147	-13.8083	111.274	-20.0969	-5.82005	119.915	-56.6231	-30.5867	109.715	-50.3628	-7.80975	123.012	-22.7712	-2.19536	150.954	-9.75126	-39.6793	161.208	8.43022	-13.8893	132.781	18.742	-32.9376	
79	0.658333	105.688	27.4773	-13.034	75.4371	11.0469	-16.6281	54.5014	-4.93179	-21.7077	35.8977	-19.5339	-29.4277	85.953	-12.6967	-72.6383	63.2566	-28.8588	-74.1307	39.908	-37.6119	-71.0294	90.856	-28.4396	-57.1004	70.1029	-30.6069	-31.2499	99.5119	-4.87207	-12.3477	100.9	-38.5652	-39.6259	85.7852	-31.2669	-10.9176	111.201	-8.6119	-4.66454	107.837	-50.8139	-24.834	97.1925	-34.4789	-6.61999	122.585	-15.1329	2.17596	151.108	-14.241	-35.5268	163.924	1.16337	-14.0147	140.733	20.4226	-31.4961	
80	0.666667	120.466	40.0453	-17.3107	83.8084	33.2938	-24.1204	57.7791	26.7099	-30.9523	35.6458	23.5879	-36.0693	89.8699	-0.823775	-74.3434	62.61	-2.38601	-78.1621	37.2559	-6.34569	-75.9071	85.4094	-13.5594	-56.7084	65.9782	-5.85027	-31.9528	98.1232	11.2976	-14.9095	91.1553	-24.0135	-39.4841	78.9568	-9.53187	-14.578	109.384	4.92843	-5.78999	95.0121	-33.0378	-25.7933	90.6498	-15.2357	-2.90079	121.197	-6.78874	0.527303	146.71	-16.5331	-34.1769	163.083	-6.53758	-10.5254	149.649	18.6957	-32.6206	
81	0.675	136.151	42.3711	-22.2883	102.93	48.9839	-32.4375	76.7394	52.6176	-44.9375	56.4175	49.9978	-52.3559	98.7508	12.9386	-80.9171	72.9312	18.7555	-87.2359	46.6717	24.1628	-90.3897	83.7804	1.52574	-61.5646	72.1565	20.6124	-37.9776	106.238	24.1043	-21.5348	83.9205	-6.97569	-41.9423	80.2403	15.4101	-19.4342	112.691	11.5536	-8.41165	83.9604	-14.52	-26.9073	85.9194	4.04444	-6.4673	115.553	2.85246	0.0241564	139.606	-21.6214	-28.8837	156.999	-18.7017	-3.68778	155.31	5.8842	-31.3628	
82	0.683333	152.912	32.9952	-26.885	127.801	47.1007	-44.0855	106.754	55.2807	-63.5735	89.1155	61.9378	-76.5084	111.793	8.01543	-84.9694	95.9064	20.9212	-98.2474	77.1544	32.8706	-106.115	97.3942	8.1604	-70.2859	88.5685	36.1845	-58.4893	118.195	24.1739	-27.9203	87.4966	5.68117	-51.1855	90.5281	29.1645	-31.7405	114.014	17.6816	-16.1828	82.7552	-2.73507	-35.3861	87.7199	19.618	-16.8082	112.079	8.34694	-5.42569	125.634	-30.0946	-27.3905	142.761	-27.8943	-0.429825	154.884	-8.938	-28.9636	
